<mxfile host="app.diagrams.net" agent="Mozilla/5.0 (Macintosh; Intel Mac OS X 10_15_7) AppleWebKit/537.36 (KHTML, like Gecko) Chrome/136.0.0.0 Safari/537.36" version="27.0.9">
  <diagram name="第 1 页" id="RgtXiRDC30_RDfQCkqtk">
    <mxGraphModel dx="1426" dy="791" grid="1" gridSize="10" guides="1" tooltips="1" connect="1" arrows="1" fold="1" page="1" pageScale="1" pageWidth="827" pageHeight="1169" math="0" shadow="0">
      <root>
        <mxCell id="0" />
        <mxCell id="1" parent="0" />
        <mxCell id="hxR2ipmJKf6mbCDiuH1d-1" value="" style="rounded=1;whiteSpace=wrap;html=1;dashed=1;dashPattern=8 8;" vertex="1" parent="1">
          <mxGeometry x="240" y="70" width="184" height="340" as="geometry" />
        </mxCell>
        <mxCell id="hxR2ipmJKf6mbCDiuH1d-21" style="edgeStyle=orthogonalEdgeStyle;rounded=0;orthogonalLoop=1;jettySize=auto;html=1;exitX=0.5;exitY=1;exitDx=0;exitDy=0;entryX=1;entryY=0.5;entryDx=0;entryDy=0;" edge="1" parent="1" source="hxR2ipmJKf6mbCDiuH1d-2" target="hxR2ipmJKf6mbCDiuH1d-20">
          <mxGeometry relative="1" as="geometry" />
        </mxCell>
        <mxCell id="hxR2ipmJKf6mbCDiuH1d-23" value="获取实际用户私钥" style="edgeLabel;html=1;align=center;verticalAlign=middle;resizable=0;points=[];" vertex="1" connectable="0" parent="hxR2ipmJKf6mbCDiuH1d-21">
          <mxGeometry x="0.0403" y="3" relative="1" as="geometry">
            <mxPoint as="offset" />
          </mxGeometry>
        </mxCell>
        <mxCell id="hxR2ipmJKf6mbCDiuH1d-2" value="kms" style="rounded=1;whiteSpace=wrap;html=1;" vertex="1" parent="1">
          <mxGeometry x="540" y="180" width="120" height="60" as="geometry" />
        </mxCell>
        <mxCell id="hxR2ipmJKf6mbCDiuH1d-9" style="edgeStyle=orthogonalEdgeStyle;rounded=0;orthogonalLoop=1;jettySize=auto;html=1;exitX=0;exitY=0.5;exitDx=0;exitDy=0;exitPerimeter=0;" edge="1" parent="1" source="hxR2ipmJKf6mbCDiuH1d-3" target="hxR2ipmJKf6mbCDiuH1d-6">
          <mxGeometry relative="1" as="geometry" />
        </mxCell>
        <mxCell id="hxR2ipmJKf6mbCDiuH1d-10" value="获取对应加密后的私钥" style="edgeLabel;html=1;align=center;verticalAlign=middle;resizable=0;points=[];" vertex="1" connectable="0" parent="hxR2ipmJKf6mbCDiuH1d-9">
          <mxGeometry x="0.1616" y="-2" relative="1" as="geometry">
            <mxPoint as="offset" />
          </mxGeometry>
        </mxCell>
        <mxCell id="hxR2ipmJKf6mbCDiuH1d-3" value="存储加密过的私钥" style="shape=cylinder3;whiteSpace=wrap;html=1;boundedLbl=1;backgroundOutline=1;size=15;" vertex="1" parent="1">
          <mxGeometry x="570" y="80" width="60" height="80" as="geometry" />
        </mxCell>
        <mxCell id="hxR2ipmJKf6mbCDiuH1d-22" style="edgeStyle=orthogonalEdgeStyle;rounded=0;orthogonalLoop=1;jettySize=auto;html=1;exitX=1;exitY=0.5;exitDx=0;exitDy=0;entryX=0;entryY=0.5;entryDx=0;entryDy=0;" edge="1" parent="1" source="hxR2ipmJKf6mbCDiuH1d-5" target="hxR2ipmJKf6mbCDiuH1d-20">
          <mxGeometry relative="1" as="geometry" />
        </mxCell>
        <mxCell id="hxR2ipmJKf6mbCDiuH1d-5" value="用户待签名数据" style="ellipse;whiteSpace=wrap;html=1;" vertex="1" parent="1">
          <mxGeometry x="60" y="250" width="100" height="60" as="geometry" />
        </mxCell>
        <mxCell id="hxR2ipmJKf6mbCDiuH1d-17" style="edgeStyle=orthogonalEdgeStyle;rounded=0;orthogonalLoop=1;jettySize=auto;html=1;exitX=0.5;exitY=1;exitDx=0;exitDy=0;entryX=0;entryY=0.5;entryDx=0;entryDy=0;" edge="1" parent="1" source="hxR2ipmJKf6mbCDiuH1d-6" target="hxR2ipmJKf6mbCDiuH1d-2">
          <mxGeometry relative="1" as="geometry" />
        </mxCell>
        <mxCell id="hxR2ipmJKf6mbCDiuH1d-18" value="加密后的私钥" style="edgeLabel;html=1;align=center;verticalAlign=middle;resizable=0;points=[];" vertex="1" connectable="0" parent="hxR2ipmJKf6mbCDiuH1d-17">
          <mxGeometry x="-0.1181" relative="1" as="geometry">
            <mxPoint as="offset" />
          </mxGeometry>
        </mxCell>
        <mxCell id="hxR2ipmJKf6mbCDiuH1d-6" value="" style="ellipse;whiteSpace=wrap;html=1;aspect=fixed;" vertex="1" parent="1">
          <mxGeometry x="292" y="80" width="80" height="80" as="geometry" />
        </mxCell>
        <mxCell id="hxR2ipmJKf6mbCDiuH1d-15" value="" style="endArrow=classic;html=1;rounded=0;" edge="1" parent="1">
          <mxGeometry width="50" height="50" relative="1" as="geometry">
            <mxPoint x="390" y="430" as="sourcePoint" />
            <mxPoint x="440" y="380" as="targetPoint" />
          </mxGeometry>
        </mxCell>
        <mxCell id="hxR2ipmJKf6mbCDiuH1d-24" style="edgeStyle=orthogonalEdgeStyle;rounded=0;orthogonalLoop=1;jettySize=auto;html=1;exitX=0.5;exitY=1;exitDx=0;exitDy=0;" edge="1" parent="1" source="hxR2ipmJKf6mbCDiuH1d-20">
          <mxGeometry relative="1" as="geometry">
            <mxPoint x="120" y="390" as="targetPoint" />
          </mxGeometry>
        </mxCell>
        <mxCell id="hxR2ipmJKf6mbCDiuH1d-25" value="返回签名内容" style="edgeLabel;html=1;align=center;verticalAlign=middle;resizable=0;points=[];" vertex="1" connectable="0" parent="hxR2ipmJKf6mbCDiuH1d-24">
          <mxGeometry x="0.2967" y="-1" relative="1" as="geometry">
            <mxPoint as="offset" />
          </mxGeometry>
        </mxCell>
        <mxCell id="hxR2ipmJKf6mbCDiuH1d-20" value="签名" style="rounded=1;whiteSpace=wrap;html=1;" vertex="1" parent="1">
          <mxGeometry x="272" y="250" width="120" height="60" as="geometry" />
        </mxCell>
      </root>
    </mxGraphModel>
  </diagram>
</mxfile>
